<svg xmlns="http://www.w3.org/2000/svg" width="57" height="57"><path fill="#3395CA" d="M0 0h57v57H0z"/><path fill="#90DFEA" d="M0 0c22 0 22 0 24 1l-1 5-4 1h2v2l-2.125 1.25C14.176 13.11 10.021 16.78 8 22c-.911 7.253-.84 13.382 3.637 19.348L13 43l2.063 2.938C17.088 48.093 18.1 48.689 21 49v2l3 1c-.875 3.875-.875 3.875-2 5H0z"/><path fill="#F4F9FC" d="M23 15c4.926.458 7.47 1.525 11 5 1.142 2.6 2.025 4.93 2.813 7.625l.654 2.063C39 34.613 39 34.613 39 37l4 1c-3.27 2.18-4.205 2.632-8 2-2.812-2.375-2.812-2.375-5-5v-2l-5 1 2 6H17c-.338-4.859.5-7.621 2.938-11.812l1.652-2.895C23 23 23 23 24 22c.191-3.632.191-3.632-1-7"/><path fill="#55D0E0" d="m0 37 4 1c1.125 2.938 1.125 2.938 2 6l2 2v3h4a249 249 0 0 1 3 4c2.585 1.268 2.585 1.268 5 2v2H0z"/><path fill="#54CFDF" d="M0 0h20v2l-2.812 1.313c-3.114 1.448-3.114 1.448-4.875 3.375L11 8H8v4a91 91 0 0 1-4 4c-1.235 2.133-1.235 2.133-2 4H0z"/><path fill="#0C5CB4" d="M55 37h2v20H37v-2l2.875-.187L43 54c1.453-2.463 1.453-2.463 2-5h4v-4a91 91 0 0 1 4-4c1.235-2.133 1.235-2.133 2-4M37 0h20v20h-2l-1.312-2.812c-1.45-3.114-1.45-3.114-3.376-4.875L49 11V8h-4l-.625-2.437L43 3c-3.053-.898-3.053-.898-6-1z"/><path fill="#A2C1E2" d="M35 0h2v2l2.75.25C43.478 3.11 44.561 4.14 47 7l1.5 1.438C52.012 12.095 54.41 14.843 55 20h2l-1 4-5-1v-2h-2l-1-6h-3v-3l-4-1V8l-2.875.188L35 8c-2-3-2-3-1.687-5.125C34 1 34 1 35 0"/><path fill="#94B9DE" d="M54.188 33.313 56 34l-2 2 1 3a107 107 0 0 1-4 6l-.937 2.188C48.579 49.718 46.517 50.58 44 52l-1 2c-3.062.625-3.062.625-6 1v2l-4-1c.875-5.875.875-5.875 2-7 2-.04 4-.043 6 0l1-4h3l1-4h3l-.187-2.312C49 36 49 36 50.25 34.125 52 33 52 33 54.188 33.313"/><path fill="#E2F2F8" d="m24 22 3 1c1.522 3.604 2 6.052 2 10l-4 1 2 6H17c-.338-4.859.5-7.621 2.938-11.812l1.652-2.895C23 23 23 23 24 22"/><path fill="#BDE6F0" d="M9.875 41c3.218 1.514 4.872 4.296 7.125 7 2.165.944 2.165.944 4 1v2l3 1c-.312 1.938-.312 1.938-1 4l-3 1v-2l-2.75-.812c-4.934-1.803-8.905-4.71-11.437-9.376L5 43c3-2 3-2 4.875-2"/><path fill="#C5EEF4" d="m13 5 .438 1.813c.45 1.749.99 3.474 1.562 5.187h-3l-.25 1.875C11 16 11 16 9 17.188L7 18c-1.64 1.64-1.601 3.778-2 6l-4-1h3l-1.25-2.125C2 18 2 18 3.75 14.938L6 12l.938-2.187C8.428 7.27 10.438 6.349 13 5"/><path fill="#ADCEE7" d="M35 0h2v2l2.875.188L43 3c2 3.636 2 3.636 2 6 .833 2.167.833 2.167 3 3l-2 1c-2.625-.937-2.625-.937-5-2V8l-2.875.188L35 8c-2-3-2-3-1.687-5.125C34 1 34 1 35 0"/><path fill="#ABDBEB" d="m20 0 4 1-1 5-4 1 2 1-6 1-1-5 6-2z"/><path fill="#A3E9EF" d="M7 24v9l-6-1c-1.125-4.75-1.125-4.75 0-7 4-1 4-1 6-1"/><path fill="#ABD4E9" d="m24 50 2.25.563c2.7.429 4.196.288 6.75-.563l-1 6c-4.75 1.125-4.75 1.125-7 0-.625-3.062-.625-3.062-1-6"/><path fill="#9DCCE5" d="m32 1 1 6-2.25-.562c-2.7-.43-4.196-.29-6.75.562.375-2.937.375-2.937 1-6 2.667-1.333 4.167-.671 7 0"/><path fill="#41A4D0" d="m25 22 2 1c.633 2.066.633 2.066 1.125 4.563l.508 2.503L29 32h-5c-.125-7.75-.125-7.75 1-10"/><path fill="#9FD6E8" d="m16 50 7 1 1 5-4 1v-2l-5-1 4-1v-2l-3 1z"/><path fill="#84ABD8" d="M53 15c2 3 2 3 2 5h2l-1 4-5-1-1-7 2 1-1 2h2z"/><path fill="#9BB9DF" d="m50 24 6 1c1.125 4.75 1.125 4.75 0 7h-3c-3-5.75-3-5.75-3-8"/><path fill="#C2ECF3" d="M10.188 41.375 12 42l1 5-2 1v-2l-4 1-2-4c3-2 3-2 5.188-1.625"/><path fill="#BDD9EC" d="M38.063 48.938 41 49l-1 4-2.375.375c-2.766.416-2.766.416-4.625 2.625 1.04-6.98 1.04-6.98 5.063-7.062"/><path fill="#ACC8E5" d="M46 41c3 1 3 1 6 3-3 2-3 2-6 2l-1 2-1-2c.938-2.625.938-2.625 2-5"/><path fill="#8AB3DB" d="M46 7c3 1 3 1 4.688 4.063L52 14h-5l-2-4-2 1 1-3z"/><path fill="#AAE3EE" d="m13 5 1 4-4 3 1 2-3-1-1-3c1.933-2.025 3.632-3.421 6-5"/><path fill="#92DAE9" d="m12 43 3 3-4 4-3-1 1-3h3z"/><path fill="#BEE5F0" d="M14 4h5v3l2 1-6 1z"/><path fill="#80E3EA" d="m0 30 1 2 4-1v2l-2 1v3H0z"/><path fill="#6FABD6" d="m37 51 1 2h5c-3.75 2-3.75 2-6 2v2h-2l-1-3z"/><path fill="#CAF2F6" d="m6 24 1 2-3 4c-1.5-1.375-1.5-1.375-3-3v-2z"/><path fill="#96E2EC" d="M5 16h2c.688 2.813.688 2.813 1 6-1.437 1.875-1.437 1.875-3 3l1-5-2-1h2z"/><path fill="#C0DFEF" d="M25 1c3.875 1.75 3.875 1.75 5 4l-6 2z"/><path fill="#74AED8" d="M35 0h2v2l6 1v1h-9z"/></svg>